<svg width="32" height="32" viewBox="0 0 32 32" fill="none" xmlns="http://www.w3.org/2000/svg">
    <g clip-path="url(#clip0_52_3834)">
        <mask id="mask0_52_3834" maskUnits="userSpaceOnUse" x="-1" y="0" width="33" height="32">
            <path d="M15.995 0.999979C12.0679 0.990865 8.29561 2.53096 5.497 5.28598L6.897 6.71498C9.32222 4.32716 12.5916 2.99254 15.995 3.00098C17.649 3.00098 18.995 4.34698 18.995 6.00098C18.995 7.65498 17.649 9.00098 15.995 9.00098H14.995V11.001H15.995C18.752 11.001 20.995 8.75798 20.995 6.00098C20.995 5.76198 20.975 5.52898 20.942 5.29898C21.9439 6.4698 22.4947 7.95999 22.495 9.50098C22.4923 11.2241 21.8067 12.8758 20.5883 14.0943C19.3699 15.3127 17.7181 15.9983 15.995 16.001H14.995V18.001H15.995C18.2485 17.9983 20.409 17.1019 22.0025 15.5085C23.596 13.915 24.4923 11.7545 24.495 9.50098C24.495 8.73698 24.386 7.99898 24.196 7.29398C25.3678 8.96628 25.9959 10.959 25.995 13.001C25.995 18.515 21.509 23.001 15.995 23.001H14.995V25.001H15.995C22.612 25.001 27.995 19.618 27.995 13.001C27.995 12.075 27.867 11.182 27.668 10.315C28.5394 12.0839 28.9934 14.0291 28.995 16.001C29.0022 18.0884 28.5004 20.1462 27.533 21.996L29.306 22.92C30.4147 20.7821 30.9936 18.4092 30.994 16.001C30.9887 12.0244 29.4067 8.21212 26.5948 5.40022C23.7829 2.58832 19.9706 1.00627 15.994 1.00098L15.995 0.999979ZM15.995 31C12.0184 30.9947 8.20614 29.4126 5.39424 26.6007C2.58234 23.7888 1.00029 19.9766 0.994995 16C0.994995 13.593 1.579 11.2 2.683 9.08098L4.456 10.005C3.48877 11.8552 2.98696 13.9132 2.994 16.001C2.99928 19.4472 4.37062 22.7507 6.80745 25.1875C9.24428 27.6244 12.5478 28.9957 15.994 29.001C19.417 29.001 22.647 27.682 25.092 25.287L26.492 26.715C23.6934 29.47 19.9211 31.0101 15.994 31.001L15.995 31Z"
                  fill="white"></path>
            <path d="M7.995 9L-0.00500488 0H15.995L18.3 3.305L7.995 9Z" fill="url(#paint0_linear_52_3834)"></path>
            <path d="M23.995 23L31.995 32H15.995L13.691 28.695L23.995 23Z" fill="url(#paint1_linear_52_3834)"></path>
            <path d="M13.995 19V15H17.995V19H13.995Z" fill="url(#paint2_linear_52_3834)"></path>
            <path d="M13.995 12V8L17.995 8V12H13.995Z" fill="url(#paint3_linear_52_3834)"></path>
            <path d="M13.995 26V22H17.995V26H13.995Z" fill="url(#paint4_linear_52_3834)"></path>
        </mask>
        <g mask="url(#mask0_52_3834)">
            <path d="M0 0H32V32H0V0Z" fill="url(#paint5_linear_52_3834)"></path>
        </g>
        <path d="M5.995 8C7.09956 8 7.995 7.10457 7.995 6C7.995 4.89543 7.09956 4 5.995 4C4.89043 4 3.995 4.89543 3.995 6C3.995 7.10457 4.89043 8 5.995 8Z"
              fill="#001D6C"></path>
        <path d="M25.995 28C27.0996 28 27.995 27.1046 27.995 26C27.995 24.8954 27.0996 24 25.995 24C24.8904 24 23.995 24.8954 23.995 26C23.995 27.1046 24.8904 28 25.995 28Z"
              fill="#001D6C"></path>
        <path d="M12.995 23V25H10.995V23H12.995ZM12.995 9V11H10.995V9H12.995ZM12.995 16V18H10.995V16H12.995Z"
              fill="#001D6C"></path>
    </g>
    <defs>
        <linearGradient id="paint0_linear_52_3834" x1="2.57572" y1="5.56084" x2="12.9821" y2="-2.07469"
                        gradientUnits="userSpaceOnUse">
            <stop offset="0.32"></stop>
            <stop offset="0.9" stop-opacity="0"></stop>
        </linearGradient>
        <linearGradient id="paint1_linear_52_3834" x1="28.012" y1="28.5025" x2="17.6057" y2="36.1384"
                        gradientUnits="userSpaceOnUse">
            <stop offset="0.32"></stop>
            <stop offset="0.9" stop-opacity="0"></stop>
        </linearGradient>
        <linearGradient id="paint2_linear_52_3834" x1="17.995" y1="17" x2="13.995" y2="17"
                        gradientUnits="userSpaceOnUse">
            <stop stop-opacity="0"></stop>
            <stop offset="0.7"></stop>
        </linearGradient>
        <linearGradient id="paint3_linear_52_3834" x1="17.995" y1="25.995" x2="13.995" y2="24.995"
                        gradientUnits="userSpaceOnUse">
            <stop stop-opacity="0"></stop>
            <stop offset="0.7"></stop>
        </linearGradient>
        <linearGradient id="paint4_linear_52_3834" x1="17.995" y1="39.995" x2="13.995" y2="38.995"
                        gradientUnits="userSpaceOnUse">
            <stop stop-opacity="0"></stop>
            <stop offset="0.7"></stop>
        </linearGradient>
        <linearGradient id="paint5_linear_52_3834" x1="0" y1="32" x2="32" y2="0" gradientUnits="userSpaceOnUse">
            <stop offset="0.1" stop-color="#A56EFF"></stop>
            <stop offset="0.9" stop-color="#0F62FE"></stop>
        </linearGradient>
        <clipPath id="clip0_52_3834">
            <rect width="32" height="32" fill="white"></rect>
        </clipPath>
    </defs>
</svg>